<svg width="387.1062866210937px" height="103.39999999999999px" xmlns="http://www.w3.org/2000/svg" viewBox="56.44685668945314 23.300000000000004 387.1062866210937 103.39999999999999" style="background: rgba(0, 0, 0, 0);" preserveAspectRatio="xMidYMid"><defs><filter id="editing-hole" x="-100%" y="-100%" width="300%" height="300%"><feFlood flood-color="#000000" result="black"></feFlood><feMorphology operator="dilate" radius="2" in="SourceGraphic" result="erode"></feMorphology><feGaussianBlur in="erode" stdDeviation="4" result="blur"></feGaussianBlur><feOffset in="blur" dx="2" dy="2" result="offset"></feOffset><feComposite operator="atop" in="offset" in2="black" result="merge"></feComposite><feComposite operator="in" in="merge" in2="SourceGraphic" result="inner-shadow"></feComposite></filter></defs><g filter="url(#editing-hole)"><g transform="translate(114.87997460365295, 99.76999855041504)"><path d="M3.68 12.35L3.68-24.50L6.62-24.50L7.06-21.56L7.06-21.56Q7.74-22.64 9.41-23.81L9.41-23.81L9.41-23.81Q11.07-24.99 14.01-24.99L14.01-24.99L14.01-24.99Q18.33-24.99 20.90-21.80L20.90-21.80L20.90-21.80Q23.47-18.62 23.47-12.94L23.47-12.94L23.47-12.94Q23.47-6.76 20.87-3.14L20.87-3.14L20.87-3.14Q18.28 0.49 13.52 0.49L13.52 0.49L13.52 0.49Q11.52 0.49 10.12-0.02L10.12-0.02L10.12-0.02Q8.72-0.54 7.99-1.15L7.99-1.15L7.99-1.15Q7.25-1.76 7.25-1.86L7.25-1.86L7.20-1.86L7.20 12.25L3.68 12.35ZM12.35-1.86L12.35-1.86Q16.17-1.86 17.93-4.58L17.93-4.58L17.93-4.58Q19.70-7.30 19.70-12.84L19.70-12.84L19.70-12.84Q19.70-17.98 17.93-20.29L17.93-20.29L17.93-20.29Q16.17-22.59 12.84-22.59L12.84-22.59L12.84-22.59Q11.07-22.59 9.80-21.85L9.80-21.85L9.80-21.85Q8.53-21.12 7.86-20.26L7.86-20.26L7.86-20.26Q7.20-19.40 7.20-19.26L7.20-19.26L7.20-4.02L7.20-4.02Q7.74-3.33 8.99-2.60L8.99-2.60L8.99-2.60Q10.24-1.86 12.35-1.86L12.35-1.86ZM37.58 0.49L37.58 0.49Q32.68 0.49 29.89-2.57L29.89-2.57L29.89-2.57Q27.10-5.63 27.10-11.76L27.10-11.76L27.10-11.76Q27.10-17.93 29.79-21.46L29.79-21.46L29.79-21.46Q32.49-24.99 37.14-24.99L37.14-24.99L37.14-24.99Q41.36-24.99 43.63-22.07L43.63-22.07L43.63-22.07Q45.91-19.16 45.91-13.82L45.91-13.82L45.91-13.82Q45.91-12.89 45.82-12.30L45.82-12.30L45.82-12.30Q45.72-11.71 45.67-11.56L45.67-11.56L30.82-11.56L30.82-11.56Q30.82-1.67 37.98-1.67L37.98-1.67L37.98-1.67Q39.94-1.67 41.33-2.38L41.33-2.38L41.33-2.38Q42.73-3.09 43.51-3.90L43.51-3.90L43.51-3.90Q44.30-4.70 44.30-4.85L44.30-4.85L45.72-3.68L45.72-3.68Q45.72-3.48 44.79-2.43L44.79-2.43L44.79-2.43Q43.86-1.37 42.04-0.44L42.04-0.44L42.04-0.44Q40.23 0.49 37.58 0.49L37.58 0.49ZM30.87-13.62L42.58-13.62L42.63-14.55L42.63-14.55Q42.63-22.88 37.14-22.88L37.14-22.88L37.14-22.88Q34.25-22.88 32.68-20.60L32.68-20.60L32.68-20.60Q31.12-18.33 30.87-13.62L30.87-13.62ZM51.11 0L51.11-24.50L53.75-24.50L54.29-19.45L54.29-19.45Q54.29-19.75 54.86-21.14L54.86-21.14L54.86-21.14Q55.42-22.54 56.59-23.77L56.59-23.77L56.59-23.77Q57.77-24.99 59.63-24.99L59.63-24.99L59.63-24.99Q60.56-24.99 61.74-24.67L61.74-24.67L61.74-24.67Q62.92-24.35 63.26-24.21L63.26-24.21L62.92-21.51L62.92-21.51Q62.57-21.66 61.37-21.95L61.37-21.95L61.37-21.95Q60.17-22.25 59.24-22.25L59.24-22.25L59.24-22.25Q57.82-22.25 56.82-21.29L56.82-21.29L56.82-21.29Q55.81-20.34 55.32-19.26L55.32-19.26L55.32-19.26Q54.83-18.18 54.68-17.64L54.68-17.64L54.68 0L51.11 0ZM68.26 0L68.26-22.10L65.71-22.10L65.71-24.16L68.26-24.45L68.26-27.98L68.26-27.98Q68.26-32.73 69.73-34.96L69.73-34.96L69.73-34.96Q71.20-37.19 74.68-37.19L74.68-37.19L74.68-37.19Q75.85-37.19 76.88-36.87L76.88-36.87L76.88-36.87Q77.91-36.55 78.55-36.21L78.55-36.21L78.55-36.21Q79.18-35.87 79.33-35.77L79.33-35.77L78.84-33.86L78.84-33.86Q78.69-33.96 78.20-34.23L78.20-34.23L78.20-34.23Q77.71-34.50 76.93-34.74L76.93-34.74L76.93-34.74Q76.15-34.99 75.31-34.99L75.31-34.99L75.31-34.99Q73.99-34.99 73.26-34.35L73.26-34.35L73.26-34.35Q72.52-33.71 72.15-32.09L72.15-32.09L72.15-32.09Q71.78-30.48 71.78-27.59L71.78-27.59L71.78-24.50L78.89-24.50L78.89-22.10L71.78-22.10L71.78 0L68.26 0ZM91.24 0.49L91.24 0.49Q86.34 0.49 83.55-2.57L83.55-2.57L83.55-2.57Q80.75-5.63 80.75-11.76L80.75-11.76L80.75-11.76Q80.75-17.93 83.45-21.46L83.45-21.46L83.45-21.46Q86.14-24.99 90.80-24.99L90.80-24.99L90.80-24.99Q95.01-24.99 97.29-22.07L97.29-22.07L97.29-22.07Q99.57-19.16 99.57-13.82L99.57-13.82L99.57-13.82Q99.57-12.89 99.47-12.30L99.47-12.30L99.47-12.30Q99.37-11.71 99.32-11.56L99.32-11.56L84.48-11.56L84.48-11.56Q84.48-1.67 91.63-1.67L91.63-1.67L91.63-1.67Q93.59-1.67 94.99-2.38L94.99-2.38L94.99-2.38Q96.38-3.09 97.17-3.90L97.17-3.90L97.17-3.90Q97.95-4.70 97.95-4.85L97.95-4.85L99.37-3.68L99.37-3.68Q99.37-3.48 98.44-2.43L98.44-2.43L98.44-2.43Q97.51-1.37 95.70-0.44L95.70-0.44L95.70-0.44Q93.88 0.49 91.24 0.49L91.24 0.49ZM84.53-13.62L96.24-13.62L96.29-14.55L96.29-14.55Q96.29-22.88 90.80-22.88L90.80-22.88L90.80-22.88Q87.91-22.88 86.34-20.60L86.34-20.60L86.34-20.60Q84.77-18.33 84.53-13.62L84.53-13.62ZM113.53 0.49L113.53 0.49Q108.44 0.49 105.69-2.65L105.69-2.65L105.69-2.65Q102.95-5.78 102.95-12.01L102.95-12.01L102.95-12.01Q102.95-18.28 105.67-21.63L105.67-21.63L105.67-21.63Q108.39-24.99 113.63-24.99L113.63-24.99L113.63-24.99Q115.35-24.99 116.87-24.52L116.87-24.52L116.87-24.52Q118.38-24.06 119.44-23.50L119.44-23.50L119.44-23.50Q120.49-22.93 120.49-22.88L120.49-22.88L120.05-20.87L120.05-20.87Q119.85-21.02 119.00-21.49L119.00-21.49L119.00-21.49Q118.14-21.95 116.79-22.39L116.79-22.39L116.79-22.39Q115.44-22.83 114.02-22.83L114.02-22.83L114.02-22.83Q110.25-22.83 108.49-20.34L108.49-20.34L108.49-20.34Q106.72-17.84 106.72-12.05L106.72-12.05L106.72-12.05Q106.72-6.47 108.58-4.07L108.58-4.07L108.58-4.07Q110.45-1.67 113.83-1.67L113.83-1.67L113.83-1.67Q115.74-1.67 117.09-2.35L117.09-2.35L117.09-2.35Q118.43-3.04 119.17-3.80L119.17-3.80L119.17-3.80Q119.90-4.56 119.90-4.70L119.90-4.70L121.47-3.68L121.47-3.68Q121.47-3.48 120.59-2.43L120.59-2.43L120.59-2.43Q119.71-1.37 117.94-0.44L117.94-0.44L117.94-0.44Q116.18 0.49 113.53 0.49L113.53 0.49ZM131.57 0.49L131.57 0.49Q128.92 0.49 127.65-1.15L127.65-1.15L127.65-1.15Q126.37-2.79 126.37-6.57L126.37-6.57L126.37-22.10L123.82-22.10L123.82-24.16L126.37-24.45L127.69-32.24L129.95-32.24L129.95-24.50L136.22-24.50L136.22-22.10L129.95-22.10L129.95-7.45L129.95-7.45Q129.95-4.26 130.56-3.06L130.56-3.06L130.56-3.06Q131.17-1.86 132.69-1.86L132.69-1.86L132.69-1.86Q133.92-1.86 134.90-2.11L134.90-2.11L134.90-2.11Q135.88-2.35 135.88-2.40L135.88-2.40L136.12-0.44L136.12-0.44Q136.02-0.34 135.51-0.12L135.51-0.12L135.51-0.12Q135.00 0.10 133.99 0.29L133.99 0.29L133.99 0.29Q132.99 0.49 131.57 0.49L131.57 0.49ZM152.93 0L152.93-24.50L155.87-24.50L156.31-21.90L156.31-21.90Q157.14-22.88 158.86-23.94L158.86-23.94L158.86-23.94Q160.57-24.99 163.22-24.99L163.22-24.99L163.22-24.99Q165.23-24.99 166.48-24.28L166.48-24.28L166.48-24.28Q167.73-23.57 168.36-22.00L168.36-22.00L168.36-22.00Q169.15-22.93 170.96-23.96L170.96-23.96L170.96-23.96Q172.77-24.99 175.52-24.99L175.52-24.99L175.52-24.99Q178.61-24.99 180.03-23.37L180.03-23.37L180.03-23.37Q181.45-21.76 181.45-17.98L181.45-17.98L181.45 0L177.87 0L177.87-17.59L177.87-17.59Q177.87-20.43 176.99-21.44L176.99-21.44L176.99-21.44Q176.11-22.44 174.20-22.44L174.20-22.44L174.20-22.44Q172.19-22.44 170.84-21.54L170.84-21.54L170.84-21.54Q169.49-20.63 168.85-19.75L168.85-19.75L168.85-19.75Q168.95-18.67 168.95-18.03L168.95-18.03L168.95 0L165.38 0L165.38-17.59L165.38-17.59Q165.38-20.38 164.52-21.41L164.52-21.41L164.52-21.41Q163.66-22.44 161.80-22.44L161.80-22.44L161.80-22.44Q159.74-22.44 158.34-21.51L158.34-21.51L158.34-21.51Q156.95-20.58 156.46-19.80L156.46-19.80L156.46 0L152.93 0ZM193.50 0.49L193.50 0.49Q190.27 0.49 188.31-1.10L188.31-1.10L188.31-1.10Q186.35-2.70 186.35-5.54L186.35-5.54L186.35-5.54Q186.35-12.74 200.21-14.21L200.21-14.21L200.21-16.81L200.21-16.81Q200.21-20.29 199.09-21.56L199.09-21.56L199.09-21.56Q197.96-22.83 195.12-22.83L195.12-22.83L195.12-22.83Q193.84-22.83 192.52-22.37L192.52-22.37L192.52-22.37Q191.20-21.90 190.29-21.39L190.29-21.39L190.29-21.39Q189.39-20.87 189.14-20.73L189.14-20.73L188.75-22.74L188.75-22.74Q188.99-22.93 190.00-23.47L190.00-23.47L190.00-23.47Q191.00-24.01 192.55-24.50L192.55-24.50L192.55-24.50Q194.09-24.99 195.66-24.99L195.66-24.99L195.66-24.99Q199.87-24.99 201.83-23.23L201.83-23.23L201.83-23.23Q203.79-21.46 203.79-17.00L203.79-17.00L203.79-5.00L203.79-5.00Q203.79-3.04 204.16-2.35L204.16-2.35L204.16-2.35Q204.53-1.67 205.07-1.67L205.07-1.67L205.07-1.67Q205.51-1.67 206.14-1.84L206.14-1.84L206.14-1.84Q206.78-2.01 206.98-2.11L206.98-2.11L207.12-0.44L207.12-0.44Q206.73-0.29 205.46 0.10L205.46 0.10L205.46 0.10Q204.18 0.49 203.30 0.49L203.30 0.49L203.30 0.49Q202.03 0.49 201.34-0.32L201.34-0.32L201.34-0.32Q200.66-1.13 200.51-3.19L200.51-3.19L200.46-3.19L200.46-3.19Q200.46-2.99 199.68-2.06L199.68-2.06L199.68-2.06Q198.89-1.13 197.35-0.32L197.35-0.32L197.35-0.32Q195.80 0.49 193.50 0.49L193.50 0.49ZM194.58-1.67L194.58-1.67Q196.34-1.67 197.62-2.45L197.62-2.45L197.62-2.45Q198.89-3.23 199.55-4.17L199.55-4.17L199.55-4.17Q200.21-5.10 200.21-5.24L200.21-5.24L200.21-12.40L200.21-12.40Q195.76-11.91 192.89-10.49L192.89-10.49L192.89-10.49Q190.02-9.06 190.02-5.98L190.02-5.98L190.02-5.98Q190.02-3.87 191.25-2.77L191.25-2.77L191.25-2.77Q192.47-1.67 194.58-1.67L194.58-1.67ZM217.85 0.49L217.85 0.49Q215.21 0.49 213.93-1.15L213.93-1.15L213.93-1.15Q212.66-2.79 212.66-6.57L212.66-6.57L212.66-22.10L210.11-22.10L210.11-24.16L212.66-24.45L213.98-32.24L216.24-32.24L216.24-24.50L222.51-24.50L222.51-22.10L216.24-22.10L216.24-7.45L216.24-7.45Q216.24-4.26 216.85-3.06L216.85-3.06L216.85-3.06Q217.46-1.86 218.98-1.86L218.98-1.86L218.98-1.86Q220.21-1.86 221.19-2.11L221.19-2.11L221.19-2.11Q222.17-2.35 222.17-2.40L222.17-2.40L222.41-0.44L222.41-0.44Q222.31-0.34 221.80-0.12L221.80-0.12L221.80-0.12Q221.28 0.10 220.28 0.29L220.28 0.29L220.28 0.29Q219.28 0.49 217.85 0.49L217.85 0.49ZM236.52 0.49L236.52 0.49Q231.43 0.49 228.68-2.65L228.68-2.65L228.68-2.65Q225.94-5.78 225.94-12.01L225.94-12.01L225.94-12.01Q225.94-18.28 228.66-21.63L228.66-21.63L228.66-21.63Q231.38-24.99 236.62-24.99L236.62-24.99L236.62-24.99Q238.34-24.99 239.86-24.52L239.86-24.52L239.86-24.52Q241.37-24.06 242.43-23.50L242.43-23.50L242.43-23.50Q243.48-22.93 243.48-22.88L243.48-22.88L243.04-20.87L243.04-20.87Q242.84-21.02 241.99-21.49L241.99-21.49L241.99-21.49Q241.13-21.95 239.78-22.39L239.78-22.39L239.78-22.39Q238.43-22.83 237.01-22.83L237.01-22.83L237.01-22.83Q233.24-22.83 231.48-20.34L231.48-20.34L231.48-20.34Q229.71-17.84 229.71-12.05L229.71-12.05L229.71-12.05Q229.71-6.47 231.57-4.07L231.57-4.07L231.57-4.07Q233.44-1.67 236.82-1.67L236.82-1.67L236.82-1.67Q238.73-1.67 240.08-2.35L240.08-2.35L240.08-2.35Q241.42-3.04 242.16-3.80L242.16-3.80L242.16-3.80Q242.89-4.56 242.89-4.70L242.89-4.70L244.46-3.68L244.46-3.68Q244.46-3.48 243.58-2.43L243.58-2.43L243.58-2.43Q242.70-1.37 240.93-0.44L240.93-0.44L240.93-0.44Q239.17 0.49 236.52 0.49L236.52 0.49ZM248.48 0L248.48-36.65L252.06-36.85L252.06-22.30L252.11-22.30L252.11-22.30Q252.11-22.30 252.72-22.96L252.72-22.96L252.72-22.96Q253.33-23.62 255.14-24.30L255.14-24.30L255.14-24.30Q256.96-24.99 259.11-24.99L259.11-24.99L259.11-24.99Q262.69-24.99 264.62-23.01L264.62-23.01L264.62-23.01Q266.56-21.02 266.56-17.10L266.56-17.10L266.56 0L263.03 0L263.03-16.66L263.03-16.66Q263.03-22.39 257.94-22.39L257.94-22.39L257.94-22.39Q256.17-22.39 254.85-21.85L254.85-21.85L254.85-21.85Q253.53-21.32 252.79-20.68L252.79-20.68L252.79-20.68Q252.06-20.04 252.06-19.94L252.06-19.94L252.06 0L248.48 0Z" fill="#e8340c"></path></g></g><style>text {
  font-size: 64px;
  font-family: Arial Black;
  dominant-baseline: central;
  text-anchor: middle;
}</style></svg>