<svg xmlns="http://www.w3.org/2000/svg" xmlns:xlink="http://www.w3.org/1999/xlink" width="1080" zoomAndPan="magnify" viewBox="0 0 810 809.999993" height="1080" preserveAspectRatio="xMidYMid meet" version="1.0"><defs><clipPath id="96e9a754d5"><path d="M 142 142 L 667.328125 142 L 667.328125 668 L 142 668 Z M 142 142 " clip-rule="nonzero"/></clipPath><clipPath id="4de6d80408"><path d="M 180.921875 142.53125 L 629.078125 142.53125 C 639.222656 142.53125 648.953125 146.5625 656.125 153.734375 C 663.300781 160.90625 667.328125 170.636719 667.328125 180.78125 L 667.328125 629.21875 C 667.328125 639.363281 663.300781 649.09375 656.125 656.265625 C 648.953125 663.4375 639.222656 667.46875 629.078125 667.46875 L 180.921875 667.46875 C 170.777344 667.46875 161.046875 663.4375 153.875 656.265625 C 146.699219 649.09375 142.671875 639.363281 142.671875 629.21875 L 142.671875 180.78125 C 142.671875 170.636719 146.699219 160.90625 153.875 153.734375 C 161.046875 146.5625 170.777344 142.53125 180.921875 142.53125 Z M 180.921875 142.53125 " clip-rule="nonzero"/></clipPath><clipPath id="aa00b22a51"><path d="M 389 337 L 544.914062 337 L 544.914062 621 L 389 621 Z M 389 337 " clip-rule="nonzero"/></clipPath><clipPath id="713dd6dd29"><path d="M 265.164062 342 L 408 342 L 408 628 L 265.164062 628 Z M 265.164062 342 " clip-rule="nonzero"/></clipPath></defs><g clip-path="url(#96e9a754d5)"><g clip-path="url(#4de6d80408)"><path fill="#ff914d" d="M 142.671875 142.53125 L 667.328125 142.53125 L 667.328125 667.191406 L 142.671875 667.191406 Z M 142.671875 142.53125 " fill-opacity="1" fill-rule="nonzero"/></g></g><g clip-path="url(#aa00b22a51)"><path fill="#ffeddc" d="M 544.386719 605.816406 L 492.203125 501.011719 L 440.273438 396.714844 L 411.09375 338.078125 C 410.351562 336.617188 408.046875 337.632812 408.765625 339.089844 L 408.765625 339.238281 C 405.425781 340.472656 402.207031 341.976562 399.117188 343.742188 C 397.421875 344.734375 395.75 345.855469 394.144531 346.914062 C 392.453125 347.949219 391.042969 349.28125 389.910156 350.90625 C 389.734375 351.191406 389.683594 351.492188 389.761719 351.816406 C 389.761719 351.816406 389.761719 351.816406 389.761719 351.945312 C 389.746094 352.0625 389.746094 352.183594 389.761719 352.304688 C 407.183594 387.265625 424.59375 422.222656 441.988281 457.171875 L 493.917969 561.488281 C 503.792969 581.050781 513.613281 600.601562 523.375 620.148438 C 523.441406 620.289062 523.535156 620.414062 523.652344 620.519531 C 523.769531 620.628906 523.898438 620.710938 524.046875 620.765625 C 524.195312 620.824219 524.347656 620.851562 524.503906 620.851562 C 524.660156 620.847656 524.8125 620.820312 524.960938 620.761719 C 526.035156 620.570312 527.070312 620.257812 528.070312 619.832031 C 529.066406 619.472656 530.0625 619.132812 531.035156 618.710938 C 532.988281 617.863281 534.863281 616.871094 536.664062 615.730469 C 538.40625 614.757812 539.96875 613.550781 541.347656 612.109375 C 542.730469 610.667969 543.871094 609.054688 544.769531 607.273438 C 544.84375 607.152344 544.890625 607.023438 544.914062 606.882812 C 544.9375 606.742188 544.929688 606.601562 544.890625 606.464844 C 544.855469 606.324219 544.792969 606.199219 544.707031 606.085938 C 544.617188 605.976562 544.511719 605.886719 544.386719 605.816406 Z M 544.386719 605.816406 " fill-opacity="1" fill-rule="nonzero"/></g><path fill="#e0340b" d="M 412.808594 334.949219 C 412.808594 332.835938 412.808594 330.722656 412.808594 328.605469 C 412.453125 319.828125 411.082031 311.207031 408.699219 302.75 C 406.3125 294.292969 402.976562 286.226562 398.691406 278.550781 C 394.476562 270.867188 389.378906 263.820312 383.394531 257.414062 C 382.621094 256.589844 381.769531 255.859375 380.84375 255.214844 C 379.914062 254.574219 378.929688 254.035156 377.890625 253.597656 C 376.847656 253.160156 375.773438 252.835938 374.664062 252.625 C 373.558594 252.410156 372.4375 252.316406 371.308594 252.339844 C 366.652344 252.054688 362.195312 252.863281 357.9375 254.769531 C 349.980469 258.722656 345.832031 267.453125 344.902344 275.910156 C 344.53125 280.679688 344.699219 285.433594 345.414062 290.164062 C 346.128906 294.898438 347.371094 299.488281 349.132812 303.9375 C 352.8125 313.007812 357.871094 321.230469 364.304688 328.605469 C 370.175781 336.078125 376.78125 342.832031 384.113281 348.878906 C 385.980469 350.351562 387.921875 351.726562 389.933594 353 C 390.132812 353.132812 390.347656 353.195312 390.585938 353.191406 C 392.070312 354.015625 394.035156 352.957031 395.453125 352.410156 C 397.699219 351.5625 399.898438 350.613281 402.035156 349.554688 C 404.226562 348.5 406.34375 347.308594 408.382812 345.984375 C 409.355469 345.554688 410.210938 344.953125 410.945312 344.183594 C 411.675781 343.414062 412.234375 342.535156 412.617188 341.542969 C 412.917969 339.351562 412.980469 337.152344 412.808594 334.949219 Z M 412.808594 334.949219 " fill-opacity="1" fill-rule="nonzero"/><path fill="#000000" d="M 485.6875 501.898438 C 472.46875 476.957031 459.941406 451.667969 448.105469 426.035156 C 444.761719 418.785156 441.5 411.53125 438.265625 404.242188 C 437.542969 402.589844 435.089844 403.964844 435.808594 405.613281 C 447.234375 431.417969 459.363281 456.902344 472.183594 482.070312 C 475.824219 489.117188 479.507812 496.164062 483.230469 503.210938 C 483.445312 503.472656 483.71875 503.636719 484.050781 503.703125 C 484.382812 503.773438 484.699219 503.726562 485 503.566406 C 485.296875 503.40625 485.511719 503.167969 485.640625 502.855469 C 485.769531 502.542969 485.785156 502.222656 485.6875 501.898438 Z M 485.6875 501.898438 " fill-opacity="1" fill-rule="nonzero"/><path fill="#000000" d="M 531.140625 595.988281 C 521.136719 574.128906 510.789062 552.433594 500.097656 530.902344 C 497.050781 524.757812 493.96875 518.621094 490.847656 512.488281 C 490.023438 510.863281 487.570312 512.238281 488.394531 513.863281 C 499.269531 535.269531 509.808594 556.867188 520.007812 578.652344 C 522.929688 584.867188 525.8125 591.105469 528.664062 597.359375 C 529.425781 599.011719 531.878906 597.613281 531.140625 595.988281 Z M 531.140625 595.988281 " fill-opacity="1" fill-rule="nonzero"/><g clip-path="url(#713dd6dd29)"><path fill="#ffeddc" d="M 290.050781 625.664062 C 305.328125 589.742188 320.613281 553.808594 335.90625 517.859375 L 381.53125 410.644531 L 407.15625 350.464844 C 407.792969 348.984375 405.507812 347.886719 404.871094 349.363281 L 404.871094 349.535156 C 401.761719 347.804688 398.53125 346.339844 395.179688 345.136719 C 393.316406 344.476562 391.433594 343.902344 389.53125 343.425781 C 387.660156 342.820312 385.746094 342.628906 383.796875 342.855469 C 383.460938 342.898438 383.195312 343.050781 382.992188 343.320312 C 382.992188 343.425781 382.84375 343.507812 382.777344 343.636719 C 367.5 379.570312 352.207031 415.507812 336.902344 451.441406 C 321.59375 487.378906 306.339844 523.179688 291.128906 558.847656 L 265.484375 619.050781 C 265.421875 619.191406 265.386719 619.34375 265.382812 619.5 C 265.375 619.65625 265.398438 619.808594 265.453125 619.957031 C 265.507812 620.101562 265.585938 620.234375 265.6875 620.351562 C 265.792969 620.46875 265.914062 620.5625 266.054688 620.632812 C 266.890625 621.328125 267.800781 621.902344 268.785156 622.367188 C 269.695312 622.894531 270.605469 623.445312 271.554688 623.910156 C 273.472656 624.84375 275.445312 625.625 277.480469 626.257812 C 279.363281 626.9375 281.300781 627.332031 283.296875 627.4375 C 285.292969 627.539062 287.265625 627.351562 289.203125 626.871094 C 289.34375 626.851562 289.472656 626.804688 289.589844 626.730469 C 289.707031 626.65625 289.808594 626.5625 289.886719 626.449219 C 289.96875 626.335938 290.019531 626.210938 290.050781 626.074219 C 290.078125 625.9375 290.078125 625.800781 290.050781 625.664062 Z M 290.050781 625.664062 " fill-opacity="1" fill-rule="nonzero"/></g><path fill="#f83b05" d="M 410.667969 349.765625 C 412.320312 348.414062 413.90625 346.996094 415.472656 345.539062 C 421.914062 339.566406 427.574219 332.929688 432.453125 325.628906 C 437.335938 318.328125 441.300781 310.5625 444.359375 302.332031 C 447.457031 294.132812 449.488281 285.675781 450.453125 276.964844 C 450.582031 275.851562 450.59375 274.734375 450.488281 273.613281 C 450.382812 272.496094 450.164062 271.398438 449.828125 270.328125 C 449.492188 269.253906 449.050781 268.230469 448.5 267.25 C 447.949219 266.269531 447.300781 265.359375 446.558594 264.515625 C 443.746094 260.773438 440.21875 257.90625 435.976562 255.910156 C 427.808594 252.445312 418.519531 254.917969 411.453125 259.757812 C 407.578125 262.570312 404.074219 265.78125 400.9375 269.390625 C 397.800781 273.003906 395.109375 276.925781 392.875 281.152344 C 388.359375 289.8125 385.390625 298.972656 383.964844 308.632812 C 382.09375 317.960938 381.253906 327.382812 381.445312 336.894531 C 381.445312 339.261719 381.761719 341.628906 382.082031 343.996094 C 382.117188 344.230469 382.21875 344.433594 382.378906 344.609375 C 382.695312 346.257812 384.789062 347.082031 386.121094 347.800781 C 388.238281 348.941406 390.355469 349.914062 392.472656 350.929688 C 394.675781 351.886719 396.933594 352.699219 399.242188 353.359375 C 400.199219 353.789062 401.199219 354.023438 402.246094 354.0625 C 403.292969 354.101562 404.308594 353.945312 405.292969 353.59375 C 407.222656 352.511719 409.015625 351.234375 410.667969 349.765625 Z M 410.667969 349.765625 " fill-opacity="1" fill-rule="nonzero"/><path fill="#000000" d="M 395.625 352.894531 C 390.503906 367.101562 385.367188 381.292969 380.21875 395.46875 C 379.605469 397.179688 382.335938 397.921875 382.949219 396.230469 C 388.070312 382.039062 393.203125 367.847656 398.355469 353.65625 C 398.96875 351.945312 396.238281 351.203125 395.625 352.894531 Z M 395.625 352.894531 " fill-opacity="1" fill-rule="nonzero"/><path fill="#000000" d="M 354.972656 448.566406 L 326.34375 516.695312 C 316.839844 539.292969 311.53125 551.574219 302.007812 574.191406 L 285.863281 612.621094 C 285.164062 614.292969 287.976562 615.011719 288.570312 613.363281 C 298.113281 590.660156 303.488281 578.25 313.03125 555.550781 L 341.558594 487.738281 C 346.945312 474.925781 352.328125 462.117188 357.703125 449.308594 C 358.488281 447.636719 355.671875 446.917969 354.972656 448.566406 Z M 354.972656 448.566406 " fill-opacity="1" fill-rule="nonzero"/><path fill="#000000" d="M 395.390625 275.886719 C 391.027344 284.152344 387.652344 292.804688 385.269531 301.84375 C 382.886719 310.878906 381.554688 320.070312 381.277344 329.410156 C 381.113281 334.738281 381.308594 340.050781 381.871094 345.347656 C 381.996094 346.703125 384.113281 346.722656 383.984375 345.347656 C 383.371094 339.480469 383.195312 333.597656 383.449219 327.699219 C 383.707031 321.804688 384.394531 315.960938 385.515625 310.167969 C 386.636719 304.371094 388.175781 298.691406 390.136719 293.125 C 392.097656 287.558594 394.453125 282.164062 397.210938 276.945312 C 397.847656 275.761719 396.027344 274.683594 395.390625 275.886719 Z M 395.390625 275.886719 " fill-opacity="1" fill-rule="nonzero"/><path fill="#000000" d="M 318.554688 261.535156 C 306.023438 258.394531 293.941406 254.015625 282.304688 248.40625 C 280.675781 247.605469 279.257812 250.035156 280.886719 250.839844 C 292.722656 256.566406 305.019531 261.035156 317.773438 264.242188 C 317.945312 264.269531 318.117188 264.269531 318.289062 264.234375 C 318.460938 264.203125 318.621094 264.140625 318.769531 264.046875 C 318.917969 263.957031 319.042969 263.839844 319.148438 263.699219 C 319.253906 263.5625 319.332031 263.40625 319.382812 263.238281 C 319.429688 263.070312 319.445312 262.898438 319.433594 262.726562 C 319.417969 262.550781 319.371094 262.386719 319.296875 262.230469 C 319.21875 262.070312 319.117188 261.933594 318.988281 261.8125 C 318.863281 261.695312 318.71875 261.601562 318.554688 261.535156 Z M 318.554688 261.535156 " fill-opacity="1" fill-rule="nonzero"/><path fill="#000000" d="M 329.8125 240.480469 C 316.90625 228.8125 304.539062 216.558594 292.71875 203.722656 C 291.488281 202.390625 289.5 204.375 290.726562 205.707031 C 302.535156 218.476562 314.902344 230.730469 327.824219 242.46875 C 329.15625 243.695312 331.167969 241.769531 329.8125 240.480469 Z M 329.8125 240.480469 " fill-opacity="1" fill-rule="nonzero"/><path fill="#000000" d="M 359.839844 217.207031 C 356.269531 201.902344 352.703125 186.597656 349.132812 171.292969 C 348.710938 169.539062 346 170.28125 346.402344 172.035156 L 357.132812 217.949219 C 357.535156 219.722656 360.265625 218.960938 359.839844 217.207031 Z M 359.839844 217.207031 " fill-opacity="1" fill-rule="nonzero"/><path fill="#000000" d="M 396.578125 164.910156 C 396.578125 163.113281 393.675781 163.09375 393.761719 164.910156 C 394.453125 180.242188 395.160156 195.5625 395.878906 210.867188 C 395.878906 212.664062 398.777344 212.664062 398.691406 210.867188 C 397.957031 195.546875 397.253906 180.230469 396.578125 164.910156 Z M 396.578125 164.910156 " fill-opacity="1" fill-rule="nonzero"/><path fill="#000000" d="M 451.890625 173.640625 C 445.527344 185.632812 439.785156 197.914062 434.667969 210.484375 C 433.988281 212.15625 436.78125 212.894531 437.375 211.226562 C 442.398438 198.894531 448.039062 186.839844 454.304688 175.058594 C 455.171875 173.472656 452.738281 172.011719 451.890625 173.640625 Z M 451.890625 173.640625 " fill-opacity="1" fill-rule="nonzero"/><path fill="#000000" d="M 487.570312 205.835938 L 463.066406 227.269531 C 461.6875 228.453125 463.699219 230.441406 465.054688 229.257812 L 489.683594 207.820312 C 491.019531 206.617188 489.007812 204.652344 487.570312 205.835938 Z M 487.570312 205.835938 " fill-opacity="1" fill-rule="nonzero"/><path fill="#000000" d="M 513.214844 246.1875 L 475.253906 256.25 C 475.078125 256.304688 474.917969 256.390625 474.777344 256.507812 C 474.636719 256.625 474.519531 256.765625 474.433594 256.925781 C 474.34375 257.085938 474.289062 257.257812 474.269531 257.441406 C 474.25 257.625 474.261719 257.804688 474.3125 257.980469 C 474.363281 258.160156 474.445312 258.320312 474.554688 258.464844 C 474.667969 258.613281 474.804688 258.730469 474.960938 258.824219 C 475.121094 258.917969 475.292969 258.976562 475.472656 259.003906 C 475.65625 259.027344 475.835938 259.019531 476.015625 258.976562 L 513.957031 248.894531 C 514.136719 248.84375 514.300781 248.761719 514.445312 248.648438 C 514.59375 248.535156 514.710938 248.398438 514.804688 248.234375 C 514.898438 248.074219 514.953125 247.902344 514.976562 247.71875 C 515 247.53125 514.988281 247.351562 514.9375 247.171875 C 514.890625 246.992188 514.808594 246.828125 514.695312 246.683594 C 514.582031 246.535156 514.441406 246.417969 514.28125 246.324219 C 514.121094 246.230469 513.945312 246.175781 513.761719 246.152344 C 513.578125 246.128906 513.394531 246.140625 513.214844 246.1875 Z M 513.214844 246.1875 " fill-opacity="1" fill-rule="nonzero"/></svg>